<svg width="223" height="72" viewBox="0 0 223 72" fill="none" xmlns="http://www.w3.org/2000/svg">
<g filter="url(#filter0_d_206_177)">
<path fill-rule="evenodd" clip-rule="evenodd" d="M69.594 14.3488C69.594 6.42416 76.0182 0 83.9428 0H138.409C146.334 0 152.758 6.42416 152.758 14.3488C152.758 22.2733 146.334 28.6975 138.409 28.6975H117.114C115.29 28.6975 113.812 30.1761 113.812 32C113.812 33.8239 115.29 35.3024 117.114 35.3024H204.004C211.929 35.3024 218.353 41.7266 218.353 49.6512C218.353 57.5758 211.929 63.9999 204.004 63.9999H18.3488C10.4242 63.9999 4 57.5758 4 49.6512C4 41.7266 10.4242 35.3024 18.3488 35.3024H105.238C107.062 35.3024 108.541 33.8239 108.541 32C108.541 30.1761 107.062 28.6975 105.238 28.6975H83.9428C76.0182 28.6975 69.594 22.2733 69.594 14.3488ZM89.002 55.8473C87.9965 55.8473 87.2101 55.7059 86.6446 55.4196C86.0774 55.1351 85.6815 54.7092 85.4553 54.1384C85.2291 53.5694 85.1161 52.8661 85.1161 52.0249V47.266C85.1161 45.9 85.42 44.8928 86.0297 44.246C86.6376 43.5992 87.6289 43.2741 89.0038 43.2741H95.3955C96.3727 43.2741 97.1184 43.3271 97.6362 43.4349C98.1522 43.5409 98.412 43.6522 98.412 43.7653L97.9879 45.536C97.7475 45.4936 97.0354 45.4477 95.8532 45.3964C94.671 45.3469 92.9551 45.3222 90.7037 45.3222H89.6205C88.4877 45.3222 87.9223 45.8276 87.9223 46.8384V52.2812C87.9223 52.7654 88.046 53.1382 88.2934 53.4015C88.5408 53.6648 88.9843 53.7956 89.6205 53.7956H90.4917C92.842 53.7956 94.6657 53.7709 95.961 53.7214C97.2563 53.6719 98.0603 53.6189 98.3713 53.5606L99.2425 54.969C99.2425 55.0397 99.1259 55.1475 98.8927 55.2888C98.6594 55.432 98.23 55.5592 97.6079 55.6723C96.9841 55.7854 96.0864 55.8437 94.9113 55.8437H89.0073L89.002 55.8473ZM41.643 55.8472V45.0058L41.4309 43.2775H50.8392C51.7457 43.2775 52.4561 43.3995 52.9739 43.6398C53.4899 43.8819 53.8733 44.1982 54.1207 44.5887C54.3681 44.981 54.5272 45.3963 54.5979 45.8381C54.6685 46.2799 54.7039 46.6987 54.7039 47.0981V48.358C54.7039 48.685 54.6544 49.0525 54.5555 49.4572C54.4565 49.8619 54.2727 50.2542 54.0041 50.6306C53.7355 51.007 53.345 51.3215 52.836 51.5689C52.3271 51.8181 51.6609 51.9418 50.8392 51.9418H48.6727C47.7803 51.9418 46.9479 51.9206 46.1775 51.8782C45.4052 51.8358 44.8291 51.8004 44.4474 51.7721V55.8489H41.6448L41.643 55.8472ZM44.4457 49.8919H50.2224C50.8604 49.8919 51.2986 49.7346 51.539 49.4219C51.7793 49.1091 51.8994 48.7327 51.8994 48.2909V46.9461C51.8994 46.4902 51.7793 46.1067 51.539 45.7939C51.2986 45.4811 50.8657 45.3239 50.2436 45.3239H44.4457V49.8919ZM21.3811 55.8471C20.418 55.8471 19.7111 55.8047 19.257 55.7198C18.8046 55.635 18.5766 55.5343 18.5766 55.4212L19.4266 53.5639C19.7518 53.6205 20.5629 53.6735 21.8582 53.7247C23.1535 53.7742 24.9348 53.799 27.2002 53.799H27.6032C28.211 53.799 28.644 53.6894 28.8985 53.4685C29.1529 53.2476 29.2802 52.8748 29.2802 52.3481V51.9205C29.2802 51.4222 29.1777 51.067 28.9727 50.8531C28.7677 50.6393 28.31 50.5333 27.6032 50.5333H22.6764C21.2468 50.5333 20.2059 50.2665 19.5538 49.7328C18.9018 49.1991 18.5766 48.3279 18.5766 47.1174V46.7764C18.5766 46.1508 18.6933 45.5747 18.9265 45.0481C19.1598 44.5215 19.5591 44.0991 20.1264 43.7775C20.6919 43.4577 21.4712 43.2969 22.4626 43.2969H28.2393C29.2024 43.2969 29.98 43.3463 30.5755 43.4471C31.171 43.546 31.4679 43.6538 31.4679 43.7669L31.0438 45.5606C30.6762 45.5182 29.8404 45.4722 28.538 45.421C27.2356 45.3715 25.4861 45.3467 23.2913 45.3467L23.0581 45.3255C22.406 45.3255 21.9678 45.4581 21.7416 45.7196C21.5154 45.9829 21.3934 46.3134 21.3811 46.7127V47.075C21.3811 47.5451 21.5118 47.8967 21.7734 48.1318C22.0349 48.3668 22.4714 48.4834 23.0793 48.4834H27.794C28.7005 48.4834 29.4728 48.5753 30.109 48.7609C30.7469 48.9464 31.2346 49.2839 31.5739 49.7752C31.9132 50.2665 32.0828 50.9892 32.0828 51.9417V52.2828C32.0828 53.3501 31.8107 54.2107 31.2647 54.8646C30.7186 55.5184 29.775 55.8471 28.4302 55.8471H21.3811ZM67.2965 43.2969L61.0745 55.8471H64.174L65.5541 53.1363H73.1581L74.411 55.8471H77.682L71.4811 43.2969H67.2965ZM72.3735 51.0458H66.3228L69.2528 45.2195H69.4648L72.3735 51.0458ZM107.734 43.2969V55.8471H119.33C120.265 55.8471 120.924 55.8224 121.306 55.7729C121.687 55.7216 121.878 55.6686 121.878 55.6121L121.028 53.7972H110.537V50.4043H118.48V48.2908H110.537V45.345H120.943V43.2969H107.734ZM134.642 55.8472L134.621 45.3256H129.099V43.2775H142.989V45.3256H137.445V55.8472H134.642ZM151.483 43.2969V55.8471H154.286V43.2969H151.483ZM164.268 55.8474V45.006L164.056 43.2989H167.285L172.084 51.836L177.054 43.2989H179.92V55.8491H177.117V47.8882H176.884L176.055 49.7454L173.38 54.5697H170.81L168.135 49.7454L167.285 47.8882H167.073V55.8491H164.27L164.268 55.8474ZM189.69 43.2969V55.8471H201.286C202.221 55.8471 202.88 55.8223 203.262 55.7729C203.643 55.7216 203.834 55.6686 203.834 55.612L202.984 53.7972H192.493V50.4043H200.436V48.2908H192.493V45.345H202.899V43.2969H189.69ZM88.2094 10.9769V14.0117V14.0134L84.163 15.6473L88.2094 17.2893V20.3274L80.3153 17.2095H80.299V14.0965H80.3153L88.2094 10.9769ZM134.199 20.1661V17.1329L138.243 15.5007L134.199 13.8684V10.8336L142.082 13.9498H142.102V17.0661H142.082L134.199 20.1661ZM130.814 6.54442L126.178 22.3506H128.931L133.567 6.54442H130.814ZM100.957 13.7593C101.005 12.5229 100.593 11.3175 99.8098 10.4036H99.8114C99.4237 9.97192 98.9529 9.63309 98.4316 9.40991C97.9103 9.18674 97.3516 9.08574 96.7896 9.11018C96.1869 9.08249 95.5858 9.18674 95.0221 9.4148C94.4585 9.64286 93.9437 9.99147 93.5121 10.4378V9.43924H90.759V20.492H93.5121V15.5968C93.5121 13.0572 94.3738 11.7882 96.0973 11.7882C96.3856 11.7752 96.6739 11.8322 96.9395 11.9544C97.2034 12.0766 97.4396 12.2623 97.6285 12.4952C98.0309 13.0279 98.2361 13.6974 98.2036 14.3784V20.492H100.957V13.7593ZM104.46 4.84223V20.6484H107.213V4.84223H104.46ZM120.472 20.0686H122.767L126.629 8.99627H123.687L121.519 15.6393L119.286 8.99627H117.139L114.906 15.6181L112.737 8.99627H109.795L113.654 20.0686H115.948L118.221 13.5575L120.472 20.0686Z" fill="url(#paint0_linear_206_177)"/>
</g>
<defs>
<filter id="filter0_d_206_177" x="0" y="0" width="222.353" height="72" filterUnits="userSpaceOnUse" color-interpolation-filters="sRGB">
<feFlood flood-opacity="0" result="BackgroundImageFix"/>
<feColorMatrix in="SourceAlpha" type="matrix" values="0 0 0 0 0 0 0 0 0 0 0 0 0 0 0 0 0 0 127 0" result="hardAlpha"/>
<feOffset dy="4"/>
<feGaussianBlur stdDeviation="2"/>
<feComposite in2="hardAlpha" operator="out"/>
<feColorMatrix type="matrix" values="0 0 0 0 0 0 0 0 0 0 0 0 0 0 0 0 0 0 0.25 0"/>
<feBlend mode="normal" in2="BackgroundImageFix" result="effect1_dropShadow_206_177"/>
<feBlend mode="normal" in="SourceGraphic" in2="effect1_dropShadow_206_177" result="shape"/>
</filter>
<linearGradient id="paint0_linear_206_177" x1="53.6512" y1="-7.17438" x2="239.046" y2="105.566" gradientUnits="userSpaceOnUse">
<stop offset="0.251308" stop-color="#996DFF"/>
<stop offset="0.623787" stop-color="#FF876E"/>
<stop offset="1" stop-color="#FFD072"/>
</linearGradient>
</defs>
</svg>
